<svg aria-hidden="true" style="position: absolute; width: 0; height: 0; overflow: hidden;" version="1.1" xmlns="http://www.w3.org/2000/svg" xmlns:xlink="http://www.w3.org/1999/xlink">
<defs>
<symbol id="icon-add" viewBox="0 0 24 24">
<path d="M18.984 12.984h-6v6h-1.969v-6h-6v-1.969h6v-6h1.969v6h6v1.969z"></path>
</symbol>
<symbol id="icon-close" viewBox="0 0 24 24">
<path d="M18.984 6.422l-5.578 5.578 5.578 5.578-1.406 1.406-5.578-5.578-5.578 5.578-1.406-1.406 5.578-5.578-5.578-5.578 1.406-1.406 5.578 5.578 5.578-5.578z"></path>
</symbol>
<symbol id="icon-edit" viewBox="0 0 24 24">
<path d="M20.719 7.031l-1.828 1.828-3.75-3.75 1.828-1.828q0.281-0.281 0.703-0.281t0.703 0.281l2.344 2.344q0.281 0.281 0.281 0.703t-0.281 0.703zM3 17.25l11.063-11.063 3.75 3.75-11.063 11.063h-3.75v-3.75z"></path>
</symbol>
<symbol id="icon-filter" viewBox="0 0 24 24">
<path d="M6 12.984v-1.969h12v1.969h-12zM3 6h18v2.016h-18v-2.016zM9.984 18v-2.016h4.031v2.016h-4.031z"></path>
</symbol>
<symbol id="icon-alarm" viewBox="0 0 24 24">
<path d="M12 20.016q2.906 0 4.945-2.063t2.039-4.969-2.039-4.945-4.945-2.039-4.945 2.039-2.039 4.945 2.039 4.969 4.945 2.063zM12 3.984q3.75 0 6.375 2.648t2.625 6.352-2.625 6.352-6.375 2.648-6.375-2.648-2.625-6.352 2.625-6.352 6.375-2.648zM12.516 8.016v5.25l3.984 2.344-0.75 1.219-4.734-2.813v-6h1.5zM7.875 3.375l-4.594 3.844-1.266-1.5 4.594-3.844zM21.984 5.719l-1.266 1.547-4.594-3.891 1.266-1.5z"></path>
</symbol>
<symbol id="icon-project" viewBox="0 0 24 24">
<path d="M20.016 18v-9.984h-16.031v9.984h16.031zM20.016 6q0.797 0 1.383 0.609t0.586 1.406v9.984q0 0.797-0.586 1.406t-1.383 0.609h-16.031q-0.797 0-1.383-0.609t-0.586-1.406v-12q0-0.797 0.586-1.406t1.383-0.609h6l2.016 2.016h8.016z"></path>
</symbol>
<symbol id="icon-expand" viewBox="0 0 24 24">
<path d="M7.406 8.578l4.594 4.594 4.594-4.594 1.406 1.406-6 6-6-6z"></path>
</symbol>
<symbol id="icon-shrink" viewBox="0 0 24 24">
<path d="M7.406 15.422l-1.406-1.406 6-6 6 6-1.406 1.406-4.594-4.594z"></path>
</symbol>
<symbol id="icon-menu" viewBox="0 0 24 24">
<path d="M3 6h18v2.016h-18v-2.016zM3 12.984v-1.969h18v1.969h-18zM3 18v-2.016h18v2.016h-18z"></path>
</symbol>
<symbol id="icon-notifications" viewBox="0 0 24 24">
<path d="M15.984 17.016v-6q0-1.922-1.078-3.211t-2.906-1.289-2.906 1.289-1.078 3.211v6h7.969zM18 15.984l2.016 2.016v0.984h-16.031v-0.984l2.016-2.016v-4.969q0-2.344 1.195-4.078t3.305-2.25v-0.703q0-0.609 0.422-1.055t1.078-0.445 1.078 0.445 0.422 1.055v0.703q2.109 0.516 3.305 2.25t1.195 4.078v4.969zM12 21.984q-0.797 0-1.406-0.586t-0.609-1.383h4.031q0 0.797-0.609 1.383t-1.406 0.586z"></path>
</symbol>
<symbol id="icon-late" viewBox="0 0 24 24">
<path d="M12 5.016q0.422 0 0.703-0.305t0.281-0.727-0.281-0.703-0.703-0.281-0.703 0.281-0.281 0.703 0.281 0.727 0.703 0.305zM12.984 14.016v-6h-1.969v6h1.969zM12.984 18v-2.016h-1.969v2.016h1.969zM18.984 3q0.797 0 1.406 0.609t0.609 1.406v13.969q0 0.797-0.609 1.406t-1.406 0.609h-13.969q-0.797 0-1.406-0.609t-0.609-1.406v-13.969q0-0.797 0.609-1.406t1.406-0.609h4.172q0.328-0.891 1.078-1.453t1.734-0.563 1.734 0.563 1.078 1.453h4.172z"></path>
</symbol>
<symbol id="icon-home" viewBox="0 0 24 24">
<path d="M9.984 20.016h-4.969v-8.016h-3l9.984-9 9.984 9h-3v8.016h-4.969v-6h-4.031v6z"></path>
</symbol>
<symbol id="icon-today" viewBox="0 0 24 24">
<path d="M6.984 9.984h5.016v5.016h-5.016v-5.016zM18.984 18.984v-10.969h-13.969v10.969h13.969zM18.984 3q0.797 0 1.406 0.609t0.609 1.406v13.969q0 0.797-0.609 1.406t-1.406 0.609h-13.969q-0.844 0-1.43-0.586t-0.586-1.43v-13.969q0-0.797 0.586-1.406t1.43-0.609h0.984v-2.016h2.016v2.016h7.969v-2.016h2.016v2.016h0.984z"></path>
</symbol>
<symbol id="icon-date" viewBox="0 0 24 24">
<path d="M18.984 20.016v-11.016h-13.969v11.016h13.969zM18.984 3.984q0.797 0 1.406 0.609t0.609 1.406v14.016q0 0.797-0.609 1.383t-1.406 0.586h-13.969q-0.844 0-1.43-0.563t-0.586-1.406v-14.016q0-0.797 0.586-1.406t1.43-0.609h0.984v-1.969h2.016v1.969h7.969v-1.969h2.016v1.969h0.984zM17.016 11.016v1.969h-2.016v-1.969h2.016zM12.984 11.016v1.969h-1.969v-1.969h1.969zM9 11.016v1.969h-2.016v-1.969h2.016z"></path>
</symbol>
<symbol id="icon-delete" viewBox="0 0 24 24">
<path d="M15.516 3.984h3.469v2.016h-13.969v-2.016h3.469l1.031-0.984h4.969zM8.016 9v9.984h7.969v-9.984h-7.969zM6 18.984v-12h12v12q0 0.797-0.609 1.406t-1.406 0.609h-7.969q-0.797 0-1.406-0.609t-0.609-1.406z"></path>
</symbol>
<symbol id="icon-all" viewBox="0 0 24 24">
<path d="M18.609 6.609q2.25 0 3.82 1.594t1.57 3.797-1.57 3.797-3.82 1.594h-0.047q-0.891 0-1.992-0.469t-1.805-1.125l-1.266-1.125 1.5-1.313 1.172 0.984q1.031 1.031 2.438 1.031t2.391-0.984 0.984-2.391-0.984-2.391-2.391-0.984-2.391 0.984q-3.328 2.906-4.219 3.75l-2.813 2.484q-1.547 1.547-3.797 1.547t-3.82-1.594-1.57-3.797 1.57-3.797 3.82-1.594h0.047q0.938 0 2.039 0.469t1.758 1.125l1.266 1.125-1.547 1.313-1.125-0.984q-1.031-1.031-2.438-1.031t-2.391 0.984-0.984 2.391 0.984 2.391 2.391 0.984 2.391-0.984q3.328-2.906 4.219-3.75l2.813-2.484q1.547-1.547 3.797-1.547z"></path>
</symbol>
<symbol id="icon-label" viewBox="0 0 32 32">
<path d="M30.5 0h-12c-0.825 0-1.977 0.477-2.561 1.061l-14.879 14.879c-0.583 0.583-0.583 1.538 0 2.121l12.879 12.879c0.583 0.583 1.538 0.583 2.121 0l14.879-14.879c0.583-0.583 1.061-1.736 1.061-2.561v-12c0-0.825-0.675-1.5-1.5-1.5zM23 12c-1.657 0-3-1.343-3-3s1.343-3 3-3 3 1.343 3 3-1.343 3-3 3z"></path>
</symbol>
<symbol id="icon-medium" viewBox="0 0 32 32">
<path d="M0 13v6c0 0.552 0.448 1 1 1h30c0.552 0 1-0.448 1-1v-6c0-0.552-0.448-1-1-1h-30c-0.552 0-1 0.448-1 1z"></path>
</symbol>
<symbol id="icon-high" viewBox="0 0 32 32">
<path d="M27.414 12.586l-10-10c-0.781-0.781-2.047-0.781-2.828 0l-10 10c-0.781 0.781-0.781 2.047 0 2.828s2.047 0.781 2.828 0l6.586-6.586v19.172c0 1.105 0.895 2 2 2s2-0.895 2-2v-19.172l6.586 6.586c0.39 0.39 0.902 0.586 1.414 0.586s1.024-0.195 1.414-0.586c0.781-0.781 0.781-2.047 0-2.828z"></path>
</symbol>
<symbol id="icon-low" viewBox="0 0 32 32">
<path d="M27.414 19.414l-10 10c-0.781 0.781-2.047 0.781-2.828 0l-10-10c-0.781-0.781-0.781-2.047 0-2.828s2.047-0.781 2.828 0l6.586 6.586v-19.172c0-1.105 0.895-2 2-2s2 0.895 2 2v19.172l6.586-6.586c0.39-0.39 0.902-0.586 1.414-0.586s1.024 0.195 1.414 0.586c0.781 0.781 0.781 2.047 0 2.828z"></path>
</symbol>
</defs>
</svg>
